<svg width="330" height="334" viewBox="0 0 330 334" fill="none" xmlns="http://www.w3.org/2000/svg">
<path d="M284.323 98.8059C283.557 101.856 278.916 100.331 277.216 99.7666C277.071 99.7121 276.911 99.7168 276.771 99.7797C276.63 99.8427 276.52 99.9586 276.465 100.102C276.465 100.27 275.99 101.886 275.378 104.235C275.339 104.367 275.347 104.509 275.4 104.636C275.453 104.764 275.548 104.869 275.669 104.936C277.684 105.979 279.908 106.563 282.179 106.644C282.316 106.653 282.447 106.707 282.55 106.798C282.652 106.889 282.721 107.013 282.745 107.148L283.067 108.871C283.078 108.95 283.105 109.025 283.146 109.093C283.187 109.161 283.241 109.22 283.305 109.267C283.369 109.314 283.442 109.348 283.52 109.366C283.597 109.384 283.678 109.387 283.756 109.374L288.352 108.718C288.434 108.705 288.513 108.673 288.582 108.627C288.652 108.581 288.711 108.521 288.756 108.45C288.801 108.38 288.83 108.301 288.842 108.218C288.854 108.136 288.849 108.052 288.826 107.971C288.673 107.376 288.443 106.446 288.244 105.607C288.215 105.496 288.22 105.379 288.258 105.27C288.296 105.161 288.366 105.066 288.459 104.997C289.674 104.043 290.545 102.721 290.94 101.231C292.824 94.1241 284.813 89.5338 284.813 89.5338C279.881 86.6668 275.347 85.1112 276.312 82.3205C277.461 78.9807 282.439 81.68 283.971 82.6865C284.102 82.7649 284.259 82.7911 284.409 82.7601C284.56 82.729 284.693 82.6429 284.783 82.5187L287.111 78.7519C287.189 78.6166 287.213 78.4571 287.179 78.3047C287.145 78.1523 287.055 78.0181 286.927 77.9284C282.592 74.9851 280.402 75.8849 280.233 74.8784L279.85 72.3469C279.827 72.1873 279.742 72.0432 279.613 71.9461C279.484 71.8489 279.321 71.8066 279.161 71.8284L274.673 72.5146C274.593 72.527 274.516 72.5559 274.447 72.5996C274.379 72.6433 274.321 72.7007 274.276 72.7682C274.231 72.8358 274.201 72.9118 274.188 72.9916C274.174 73.0714 274.178 73.153 274.198 73.2314C274.75 75.4731 274.979 75.8697 274.428 76.1442C273.298 76.7091 272.326 77.5437 271.599 78.5735C270.872 79.6033 270.413 80.7963 270.261 82.046C269.312 93.1023 286.054 92.0653 284.323 98.8059ZM95.3499 118.799C94.8291 122.215 89.039 121.849 87.0324 121.635C86.8386 121.618 86.6453 121.674 86.4916 121.793C86.338 121.912 86.2356 122.084 86.2053 122.276L85.807 127.171C85.7779 127.316 85.8041 127.467 85.8805 127.594C85.957 127.721 86.0783 127.815 86.2206 127.857C88.714 128.441 91.3094 128.441 93.8028 127.857C93.947 127.819 94.1005 127.837 94.2316 127.908C94.3627 127.979 94.4615 128.097 94.5074 128.239L95.1048 130.511C95.1307 130.587 95.1715 130.658 95.2248 130.718C95.2782 130.779 95.343 130.828 95.4156 130.864C95.4883 130.899 95.5672 130.92 95.6479 130.925C95.7287 130.93 95.8096 130.919 95.886 130.892C97.5651 130.087 99.3005 129.404 101.079 128.849C101.259 128.78 101.406 128.646 101.492 128.473C101.577 128.301 101.593 128.103 101.538 127.918C101.293 127.324 100.864 125.89 100.558 125.021C100.516 124.898 100.51 124.765 100.54 124.639C100.57 124.512 100.634 124.396 100.726 124.304C101.998 123.001 102.838 121.34 103.131 119.546C104.54 111.326 94.9057 108.612 94.9057 108.612C88.9778 106.904 83.6472 106.492 84.4284 103.213C85.3628 99.2786 91.2295 100.88 93.1748 101.459C93.3558 101.508 93.5482 101.49 93.7169 101.408C93.8856 101.327 94.0194 101.188 94.0938 101.017L96.2536 96.3201C96.2911 96.2511 96.3146 96.1754 96.3225 96.0973C96.3305 96.0192 96.3229 95.9403 96.3001 95.8652C96.2773 95.79 96.2398 95.7201 96.1898 95.6595C96.1398 95.5989 96.0782 95.5487 96.0085 95.5119C93.6683 94.5939 91.1476 94.2234 88.6408 94.4291C88.5021 94.4462 88.3618 94.4144 88.2443 94.3392C88.1267 94.2639 88.0394 94.1501 87.9974 94.0173L87.2162 91.2723C87.1919 91.1884 87.1492 91.1108 87.0913 91.0452C87.0334 90.9795 86.9617 90.9274 86.8813 90.8924C86.8009 90.8575 86.7137 90.8406 86.626 90.843C86.5383 90.8454 86.4522 90.867 86.3738 90.9063L81.3802 92.3246C81.1983 92.3873 81.0476 92.5173 80.9592 92.6876C80.8708 92.8579 80.8516 93.0555 80.9054 93.2396C81.8398 96.2896 82.1002 96.5946 81.5487 97.0216C80.3387 97.8991 79.3504 99.0449 78.6618 100.368C77.9733 101.692 77.6034 103.156 77.5815 104.647C77.7193 116.847 96.5753 111.021 95.3499 118.799ZM167.863 49.9444C168.706 50.4019 166.929 52.1709 167.863 52.5369L171.524 53.5892C171.592 53.6097 171.663 53.616 171.733 53.6076C171.803 53.5992 171.87 53.5763 171.931 53.5404C171.991 53.5045 172.044 53.4564 172.085 53.3991C172.125 53.3418 172.154 53.2767 172.168 53.2079C172.704 51.1339 172.719 50.9204 173.117 50.8289C174.422 50.5107 175.598 49.803 176.487 48.8006C180.761 44.1036 176.778 37.9425 176.778 37.9425C174.343 34.1147 171.647 31.4154 173.485 29.6464C175.691 27.5114 178.172 31.1714 178.953 32.5134C178.986 32.5669 179.029 32.6132 179.08 32.6499C179.131 32.6865 179.189 32.7127 179.251 32.7269C179.312 32.741 179.375 32.743 179.437 32.7325C179.499 32.7221 179.559 32.6994 179.612 32.6659L182.829 30.6072C182.887 30.5753 182.939 30.5322 182.98 30.4804C183.022 30.4286 183.053 30.3691 183.072 30.3053C183.09 30.2415 183.096 30.1747 183.088 30.1087C183.081 30.0428 183.06 29.9789 183.028 29.9209C182.188 28.3439 180.999 26.9776 179.551 25.9254C179.168 25.6356 179.336 25.3764 180.148 23.3328C180.175 23.2722 180.187 23.2066 180.186 23.1405C180.185 23.0744 180.169 23.0094 180.14 22.9499C180.111 22.8905 180.069 22.8381 180.017 22.7962C179.966 22.7544 179.906 22.7242 179.842 22.7076L176.288 21.7011C176.152 21.6685 176.009 21.6902 175.888 21.7614C175.768 21.8326 175.681 21.9478 175.645 22.0823L175.109 23.9581C175.08 24.0673 175.016 24.1646 174.928 24.2358C174.84 24.3071 174.732 24.3487 174.618 24.3546C173.529 24.4088 172.468 24.7173 171.521 25.2551C170.574 25.7928 169.767 26.5449 169.165 27.4504C163.942 35.411 176.625 40.3215 172.596 44.7898C170.82 46.7723 168.001 44.1188 167.006 43.0971C166.911 43.0058 166.785 42.9547 166.653 42.9547C166.522 42.9547 166.395 43.0058 166.301 43.0971L163.835 45.8116C163.76 45.9017 163.719 46.015 163.719 46.1318C163.719 46.2487 163.76 46.3619 163.835 46.4521C164.89 47.9091 166.269 49.1041 167.863 49.9444ZM196.507 89.732C196.518 89.854 196.571 89.9683 196.658 90.0548C196.745 90.1413 196.86 90.1945 196.982 90.2048C231.018 93.1176 232.473 94.9324 233.04 94.2766C233.606 93.6208 234.403 91.2266 233.315 91.0131C221.665 88.535 209.81 87.1362 197.901 86.8345C196.951 86.8345 196.431 88.7255 196.507 89.732ZM161.644 77.5777C160.388 77.5777 166.332 78.7367 195.925 84.8825C207.259 85.5487 218.546 86.8572 229.731 88.8018C229.745 88.8068 229.76 88.809 229.775 88.8083C229.79 88.8075 229.805 88.8039 229.818 88.7975C229.832 88.7911 229.844 88.7821 229.854 88.7711C229.864 88.7601 229.872 88.7472 229.877 88.7332C229.882 88.7191 229.884 88.7043 229.883 88.6894C229.882 88.6745 229.879 88.66 229.872 88.6465C229.866 88.6331 229.857 88.621 229.846 88.611C229.835 88.601 229.822 88.5933 229.808 88.5883C213.219 80.6582 181.419 76.6779 161.644 77.5777Z" fill="#2973B2"/>
<path d="M283.818 120.354C291.293 120.354 301.816 116.786 305.354 109.679C315.249 89.7472 305.844 66.9788 293.1 61.3972C288.949 59.5977 284.721 59.1859 277.553 59.8722C274.908 60.1813 272.352 61.0153 270.037 62.3251C267.722 63.6348 265.694 65.3935 264.073 67.4973C249.981 84.9129 259.891 120.354 283.818 120.354ZM259.309 80.7039C263.185 60.2534 280.968 55.6784 292.916 66.7195C310.623 83.0677 304.542 117.335 284.338 119.058C268.331 120.476 255.48 100.865 259.294 80.8259L259.309 80.7039Z" fill="#2973B2"/>
<path d="M275.209 112.759C277.382 113.903 279.797 114.515 282.255 114.544C291.706 114.544 300.943 104.006 299.105 88.3287C296.792 68.229 277.966 58.5146 267.458 71.401C257.701 83.3724 261.684 105.805 275.209 112.759ZM278.028 66.7192C286.467 65.9262 296.592 74.024 298.262 88.4507C300.192 105.226 288.214 118.234 275.715 111.753C270.583 109.099 264.686 102.42 263.46 91.6075C262.235 80.7951 267.198 67.7257 278.028 66.7192ZM165.734 59.0179C167.23 59.629 168.836 59.9254 170.452 59.8887C172.067 59.852 173.658 59.4828 175.124 58.8044C190.733 52.1706 196.017 23.729 181.94 17.8729C172.75 14.0452 163.207 23.2563 159.546 32.5436C155.64 42.4562 156.911 55.3883 165.734 59.0179ZM177.728 18.0254C186.735 18.0254 190.319 27.9991 188.986 37.2864C187.792 45.5672 182.859 53.5126 176.518 57.1116C170.176 60.7106 164.034 58.8501 160.848 53.3296C153.541 40.5804 164.57 18.0254 177.728 18.0254Z" fill="#2973B2"/>
<path d="M166.102 63.8523C168.832 65.1456 171.797 65.8769 174.818 66.0026C183.426 66.0026 192.249 58.6215 196.584 47.7024C201.363 35.5023 198.989 22.4176 191.054 17.2021C188.788 16.0503 186.456 15.0318 184.069 14.152C169.518 8.11297 151.55 28.1212 154.629 48.8004C155.808 56.6085 159.975 62.1138 166.102 63.8523ZM157.524 31.705C159.756 25.6473 163.824 20.43 169.165 16.7751C174.113 13.5878 179.306 12.8558 183.794 14.701C199.111 21.0299 195.65 50.2644 179.551 60.604C162.824 71.3401 149.253 52.5977 157.524 31.705ZM85.8377 147.057C93.9764 147.544 101.986 144.859 108.171 139.569C124.361 129.092 126.23 106.019 113.455 90.9518C103.867 79.6362 88.3805 75.7017 75.82 81.3747C41.5699 92.0346 51.6029 144.297 85.8377 147.057ZM91.5971 79.9565C118.908 83.4335 130.871 118.951 110.713 136.504C90.9844 153.63 58.6337 137.023 59.0779 108.856C59.3689 91.3941 73.7981 77.7757 91.5971 79.9717V79.9565Z" fill="#2973B2"/>
<path d="M78.8835 134.704C81.9603 136.467 85.3744 137.566 88.9049 137.931C92.4354 138.296 96.0036 137.919 99.3785 136.824C114.083 131.914 120.624 113.949 112.031 98.9886C103.438 84.0282 84.4591 80.5359 72.6493 90.723C58.8788 102.679 62.6163 125.57 78.8835 134.704ZM88.1966 86.1632C100.742 86.1632 111.954 95.8166 114.237 108.84C118.066 130.511 94.7066 145.593 76.4021 131.898C72.8981 129.283 70.0634 125.882 68.1285 121.971C66.1935 118.059 65.2128 113.749 65.2662 109.389C65.5419 96.3961 75.4983 86.1632 88.1966 86.1632ZM194.623 137.724C194.505 137.725 194.391 137.768 194.3 137.844C194.21 137.92 194.15 138.026 194.13 138.142C194.11 138.258 194.131 138.378 194.191 138.48C194.25 138.582 194.344 138.66 194.455 138.7C199.219 140.225 199.877 136.87 197.871 132.417C197.832 132.302 197.749 132.206 197.64 132.152C197.531 132.098 197.404 132.089 197.288 132.127C197.173 132.166 197.077 132.248 197.022 132.357C196.968 132.466 196.959 132.591 196.997 132.707C197.316 134.073 197.49 135.468 197.518 136.87C197.457 137.526 197.426 137.754 194.623 137.724ZM184.192 138.09C183.595 142.665 188.971 146.478 192.77 144.678C192.871 144.626 192.95 144.539 192.993 144.434C193.035 144.328 193.038 144.211 193.001 144.104C192.964 143.997 192.889 143.906 192.79 143.849C192.692 143.792 192.576 143.772 192.463 143.794C191.594 143.924 190.706 143.88 189.854 143.663C189.002 143.446 188.202 143.061 187.502 142.53C186.802 142 186.216 141.335 185.779 140.575C185.342 139.815 185.063 138.975 184.958 138.105C184.96 138.004 184.921 137.906 184.851 137.833C184.781 137.761 184.684 137.718 184.583 137.716C184.481 137.714 184.383 137.753 184.31 137.823C184.236 137.893 184.194 137.989 184.192 138.09ZM189.415 130.419C190.947 130.663 191.759 125.936 190.196 125.692C188.634 125.448 187.838 130.16 189.415 130.419ZM203.982 127.018C202.451 126.759 201.593 131.761 203.339 131.761C204.809 131.761 205.529 127.278 203.982 127.018ZM192.984 120.476C191.667 117.868 187.547 117.746 185.662 120.476C185.588 120.575 185.552 120.697 185.56 120.821C185.569 120.944 185.621 121.06 185.708 121.149C185.795 121.237 185.91 121.291 186.034 121.302C186.158 121.313 186.281 121.28 186.382 121.208C187.185 120.537 188.193 120.159 189.241 120.137C190.288 120.115 191.312 120.45 192.142 121.086C192.236 121.151 192.348 121.185 192.462 121.184C192.577 121.183 192.688 121.146 192.781 121.079C192.873 121.012 192.943 120.918 192.979 120.81C193.016 120.702 193.017 120.585 192.984 120.476ZM207.827 123.008C207.896 123.103 207.996 123.172 208.11 123.203C208.223 123.235 208.345 123.227 208.453 123.181C208.562 123.135 208.651 123.053 208.707 122.95C208.763 122.846 208.782 122.727 208.761 122.611C208.542 121.992 208.178 121.434 207.7 120.982C207.223 120.53 206.644 120.196 206.013 120.009C205.381 119.822 204.714 119.786 204.065 119.904C203.417 120.022 202.806 120.291 202.282 120.69C202.192 120.761 202.129 120.86 202.103 120.971C202.078 121.083 202.091 121.2 202.141 121.303C202.191 121.406 202.274 121.489 202.378 121.538C202.482 121.587 202.599 121.6 202.711 121.574C203.6 121.197 204.592 121.134 205.522 121.395C206.453 121.655 207.266 122.224 207.827 123.008ZM75.4677 230.689C75.3926 234.014 76.1173 237.308 77.5815 240.297C77.6181 240.389 77.6894 240.463 77.7802 240.504C77.8711 240.545 77.9743 240.549 78.0681 240.515C78.1618 240.482 78.2386 240.413 78.2822 240.323C78.3258 240.234 78.3327 240.132 78.3015 240.037C77.3082 237.029 76.7914 233.886 76.7697 230.719C76.7697 229.088 77.1833 227.212 77.9032 226.983C78.2555 226.876 79.1133 227.075 80.8748 229.637C80.9276 229.724 81.013 229.786 81.1121 229.81C81.2112 229.835 81.3159 229.819 81.4033 229.766C81.4906 229.714 81.5534 229.629 81.5778 229.53C81.6022 229.431 81.5863 229.327 81.5335 229.24C78.7916 223.735 75.6209 225.214 75.4677 230.689ZM92.9298 273.496C90.7785 273.239 88.7371 272.407 87.0221 271.089C85.307 269.771 83.9821 268.015 83.1878 266.008C83.131 265.896 83.0362 265.807 82.9202 265.758C82.8042 265.708 82.6743 265.701 82.5535 265.738C82.4326 265.774 82.3286 265.852 82.2597 265.957C82.1908 266.062 82.1615 266.189 82.1768 266.313C82.6868 268.736 84.0452 270.899 86.0095 272.416C87.9737 273.932 90.4157 274.705 92.8991 274.594C92.9715 274.596 93.0436 274.584 93.1113 274.558C93.179 274.532 93.2409 274.494 93.2935 274.444C93.3462 274.395 93.3885 274.335 93.418 274.269C93.4476 274.204 93.4639 274.133 93.4659 274.06C93.4679 273.988 93.4556 273.917 93.4298 273.849C93.4039 273.782 93.365 273.72 93.3152 273.668C93.2654 273.615 93.2058 273.573 93.1396 273.544C93.0735 273.514 93.0022 273.498 92.9298 273.496ZM92.0873 237.216C90.724 238.116 92.8072 241.471 94.2624 241.471C94.4098 241.467 94.5546 241.431 94.6867 241.366C94.8187 241.3 94.9348 241.207 95.0267 241.092C95.1187 240.977 95.1843 240.844 95.2189 240.701C95.2536 240.559 95.2565 240.41 95.2274 240.266C95.1508 238.833 93.2821 236.377 92.0873 237.216ZM98.4594 235.478C97.4331 234.868 96.6979 235.478 96.7438 236.393C96.8204 237.826 98.6432 240.251 99.8074 239.443C100.971 238.634 99.8993 236.377 98.4594 235.478ZM64.3931 232.29C57.5461 231.314 52.139 232.29 47.7735 235.02C47.6181 235.119 47.5039 235.271 47.4518 235.447C47.0956 236.591 47.1608 237.824 47.6356 238.924C47.671 238.999 47.7217 239.065 47.7843 239.119C47.847 239.174 47.9203 239.214 47.9995 239.238C48.0788 239.263 48.1622 239.271 48.2446 239.261C48.327 239.252 48.4066 239.225 48.4781 239.183C53.2466 236.713 58.6988 235.871 63.9948 236.789C64.0563 236.805 64.1204 236.807 64.183 236.797C64.2457 236.787 64.3055 236.764 64.3587 236.73C64.412 236.695 64.4575 236.65 64.4924 236.597C64.5273 236.545 64.5509 236.485 64.5616 236.423C64.8077 235.225 64.9003 234 64.8373 232.778C64.8315 232.658 64.784 232.544 64.703 232.455C64.622 232.366 64.5124 232.308 64.3931 232.29ZM108.263 253.152C105.888 253.152 106.103 259.924 108.416 259.863C110.729 259.802 110.576 253.152 108.263 253.152ZM114.604 254.677C114.252 253.274 113.164 253.061 112.307 254.22C111.05 255.882 110.959 259.588 112.598 259.588C114.237 259.588 115.064 256.431 114.604 254.677ZM173.286 270.431H168.691C168.507 270.438 168.332 270.511 168.2 270.638C168.067 270.764 167.986 270.935 167.971 271.117L167.634 274.06C167.62 274.289 167.695 274.515 167.843 274.691C167.991 274.866 168.201 274.979 168.43 275.006C170.192 275.189 171.968 275.189 173.73 275.006C173.951 274.983 174.154 274.874 174.295 274.702C174.435 274.531 174.502 274.311 174.481 274.091L174.174 271.27C174.149 271.048 174.047 270.842 173.884 270.689C173.721 270.535 173.51 270.444 173.286 270.431ZM176.518 271.148L176.273 274.06C176.264 274.296 176.347 274.525 176.504 274.701C176.661 274.877 176.88 274.986 177.115 275.006C178.945 275.166 180.785 275.166 182.614 275.006C182.842 274.979 183.05 274.866 183.196 274.689C183.341 274.513 183.413 274.288 183.395 274.06C182.997 272.063 183.395 270.461 182.109 270.431C180.822 270.4 178.938 270.431 177.253 270.431C177.063 270.438 176.882 270.516 176.747 270.648C176.611 270.781 176.529 270.959 176.518 271.148ZM185.601 275.006C187.389 275.174 189.189 275.174 190.978 275.006C191.2 274.983 191.404 274.874 191.547 274.703C191.69 274.532 191.761 274.313 191.744 274.091L191.437 271.27C191.408 271.039 191.295 270.827 191.12 270.673C190.946 270.519 190.721 270.433 190.487 270.431H185.739C185.554 270.437 185.377 270.51 185.242 270.637C185.107 270.763 185.022 270.934 185.004 271.117L184.774 274.03C184.764 274.148 184.777 274.267 184.813 274.38C184.849 274.494 184.907 274.599 184.984 274.689C185.06 274.78 185.155 274.855 185.261 274.909C185.367 274.963 185.482 274.996 185.601 275.006ZM194.056 275.006C195.948 275.143 197.848 275.143 199.739 275.006C199.852 274.998 199.962 274.968 200.063 274.918C200.164 274.868 200.255 274.798 200.329 274.713C200.403 274.628 200.459 274.529 200.495 274.423C200.53 274.316 200.544 274.203 200.536 274.091L200.214 271.254C200.171 271.023 200.048 270.814 199.866 270.663C199.684 270.513 199.455 270.431 199.219 270.431H194.194C194.005 270.433 193.823 270.504 193.682 270.63C193.541 270.757 193.451 270.93 193.428 271.117L193.199 274.03C193.188 274.151 193.202 274.272 193.24 274.387C193.278 274.502 193.339 274.609 193.419 274.7C193.499 274.791 193.597 274.865 193.706 274.918C193.816 274.97 193.935 275 194.056 275.006ZM250.349 262.547C245.753 261.586 229.655 268.86 229.134 269.424C227.878 270.751 228.46 274.777 229.517 275.951C230.574 277.126 259.539 289.524 269.342 291.568C272.054 291.766 281.597 287.374 284.124 286.2C287.187 284.675 290.481 283.455 291.032 280.45C291.032 280.45 291.599 276.699 290.159 275.662C281.505 270.233 263.889 265.353 250.349 262.547ZM250.18 263.507C260.351 265.444 280.386 271.376 288.995 276.348C286.559 278.269 272.146 284.919 270.032 285.269C262.067 281.014 239.504 273.069 229.961 270.202C230.558 269.607 245.861 262.699 250.104 263.507H250.18ZM269.986 290.104C265.268 290.104 234.878 277.598 230.666 275.372C229.792 274.914 229.425 272.322 229.67 270.949C236.869 273.633 268.255 284.995 269.649 286.459C270.006 286.992 270.218 287.608 270.264 288.247C270.31 288.886 270.187 289.526 269.909 290.104H269.986ZM289.899 280.221C289.516 282.265 287.647 283.15 283.925 284.903C279.839 286.884 275.604 288.541 271.257 289.86C271.605 288.653 271.496 287.362 270.951 286.23C274.642 285.269 287.203 279.718 289.868 277.171C289.975 278.188 289.944 279.214 289.776 280.221H289.899Z" fill="#2973B2"/>
<path d="M284.047 275.708C283.435 274.488 250.257 264.255 248.909 264.545C245.324 265.338 242.782 266.07 235.552 269.684C235.473 269.719 235.407 269.775 235.36 269.847C235.313 269.919 235.288 270.002 235.288 270.088C235.288 270.174 235.313 270.257 235.36 270.329C235.407 270.401 235.473 270.457 235.552 270.492C244.084 273.634 269.588 282.692 270.078 282.601C284.139 276.119 284.461 276.516 284.047 275.708ZM238.554 270.553C241.775 268.764 245.229 267.425 248.817 266.573C260.596 269.455 272.069 273.344 280.877 276.47C277.068 277.863 273.363 279.519 269.787 281.427C262.832 278.788 249.644 273.939 238.554 270.553Z" fill="#2973B2"/>
<path d="M290.419 248.715C290.387 248.249 290.24 247.799 289.991 247.403C290.425 247.396 290.85 247.28 291.228 247.067C291.606 246.854 291.924 246.55 292.154 246.184C292.384 245.817 292.518 245.399 292.544 244.967C292.57 244.536 292.487 244.104 292.303 243.713C306.181 231.33 323.475 210.162 322.556 207.631C321.928 205.938 321.928 209.995 267.412 201.287C256.001 176.277 242.215 151.8 210.982 150.839C210.851 150.836 210.723 150.879 210.619 150.959C210.516 151.04 210.444 151.154 210.416 151.282C208.455 159.791 202.267 179.342 187.179 176.993C175.874 175.224 167.833 162.338 164.831 150.245C167.895 150.373 170.965 150.301 174.021 150.031C174.126 150.021 174.225 149.979 174.304 149.911C174.384 149.843 174.44 149.751 174.465 149.65C175.725 144.422 175.98 139.005 175.216 133.683C175.207 133.618 175.185 133.555 175.15 133.499C175.115 133.443 175.068 133.395 175.013 133.359C174.957 133.323 174.895 133.299 174.83 133.289C174.764 133.279 174.697 133.283 174.634 133.302C170.529 134.369 169.242 128.467 170.483 125.677C170.66 125.235 170.983 124.867 171.399 124.633C171.814 124.399 172.298 124.313 172.769 124.389C173.24 124.466 173.671 124.7 173.991 125.053C174.31 125.407 174.499 125.858 174.527 126.332C174.527 128.33 179.122 123.694 178.509 118.966C179.152 118.966 179.78 118.966 180.393 118.86C181.297 118.753 180.179 115.276 183.702 112.043C183.334 113.177 183.287 114.391 183.564 115.55C183.763 116.191 186.627 116.252 188.282 115.794C188.879 115.642 188.603 114.071 191.161 109.298C195.443 110.201 199.805 110.666 204.181 110.686C205.966 112.021 207.59 113.556 209.022 115.261C215.761 123.297 207.383 147.408 197.779 152.791C193.903 154.957 190.12 154.316 186.29 152.044C185.877 151.785 185.571 151.587 185.341 151.907C185.275 151.977 185.239 152.07 185.239 152.166C185.239 152.262 185.275 152.355 185.341 152.425C191.284 157.305 198.345 156.604 204.013 148.826C204.917 148.964 208.195 149.253 208.608 148.43C209.231 147.016 209.648 145.522 209.849 143.992C211.105 147.24 209.941 149.635 211.136 149.513C212.586 149.452 213.991 148.993 215.195 148.186C215.243 148.144 215.282 148.093 215.308 148.035C215.335 147.977 215.348 147.914 215.348 147.85C215.386 145.871 215.186 143.895 214.751 141.964C216.88 145.014 216.956 146.31 217.37 146.356C218.243 146.493 221.199 144.312 221.153 143.717C220.678 141.382 219.774 139.154 218.488 137.145C217.815 135.524 217.624 133.746 217.937 132.021C219.208 134.486 220.135 137.113 220.694 139.829C220.786 140.317 220.816 140.591 221.306 140.576C222.18 140.505 223.03 140.263 223.809 139.862C224.587 139.461 225.278 138.911 225.84 138.243C225.9 138.181 225.942 138.105 225.963 138.022C225.985 137.939 225.985 137.853 225.963 137.77C225.691 136.577 225.307 135.413 224.814 134.293C227.188 135.498 229.777 134.293 229.808 133.546C230.007 127.735 228.613 125.326 226.851 123.496C227.326 123.755 230.512 123.618 231.263 121.879C231.391 121.266 231.391 120.632 231.263 120.019C231.051 118.745 230.573 117.529 229.861 116.449C229.149 115.37 228.218 114.451 227.127 113.751C224.554 111.982 222.348 111.158 221.597 108.337C225.442 109.557 225.35 112.912 229.808 114.956C229.859 114.992 229.921 115.011 229.984 115.011C230.047 115.011 230.108 114.992 230.16 114.956C232.335 113.812 232.718 111.021 232.197 110.731C228.613 108.795 228.107 102.878 221.031 101.886C224.324 101.063 225.626 101.596 225.733 100.788C225.851 100.081 225.798 99.3566 225.576 98.6747C225.355 97.9927 224.973 97.3735 224.462 96.869C221.171 96.177 217.764 96.25 214.505 97.0825C214.888 95.3287 215.149 94.0324 215.149 94.0324C215.149 93.6664 216.803 93.9257 194.669 91.9889C176.778 87.6579 177.912 87.8104 177.82 88.2069C177.82 88.2831 177.284 95.9234 177.544 101.718C177.728 105.638 185.341 107.971 190.12 109.039C188.864 110.799 188.05 112.833 187.746 114.971C186.588 114.887 185.426 114.887 184.269 114.971C184.352 113.755 184.526 112.547 184.789 111.357C184.912 110.731 184.958 110.533 184.789 110.396C184.253 109.969 179.811 112.638 179.872 118.021C178.187 118.021 177.59 117.853 176.211 117.762C175.976 114.629 176.842 111.513 178.662 108.947L178.77 108.795C178.802 108.756 178.826 108.711 178.841 108.662C178.855 108.614 178.86 108.563 178.855 108.513C178.85 108.463 178.835 108.414 178.812 108.369C178.788 108.325 178.755 108.285 178.716 108.253C178.677 108.221 178.632 108.197 178.583 108.182C178.534 108.168 178.483 108.163 178.433 108.168C178.382 108.173 178.333 108.188 178.289 108.211C178.244 108.235 178.204 108.268 178.172 108.307C176.966 109.672 176.081 111.288 175.583 113.037C175.084 114.787 174.985 116.625 175.292 118.417C175.31 118.524 175.361 118.623 175.438 118.7C175.515 118.776 175.614 118.827 175.721 118.844C176.334 118.936 176.962 118.982 177.59 119.012C177.385 121.289 176.558 123.467 175.201 125.311C174.991 124.761 174.632 124.281 174.164 123.923C173.696 123.564 173.138 123.343 172.551 123.282C166.822 122.687 167.817 135.635 174.281 134.339C174.281 137.541 174.281 139.569 174.052 143.123L172.014 144.282C171.194 142.375 170.105 140.593 168.782 138.99C168.749 138.954 168.709 138.925 168.664 138.905C168.62 138.886 168.571 138.875 168.522 138.875C168.473 138.875 168.425 138.886 168.38 138.905C168.335 138.925 168.295 138.954 168.262 138.99C167.69 141.251 167.539 143.598 167.817 145.913C166.631 145.916 165.457 145.672 164.371 145.197C163.801 141.857 163.693 138.455 164.049 135.086C164.06 134.99 164.041 134.893 163.994 134.808C163.948 134.723 163.876 134.655 163.79 134.612C163.703 134.568 163.605 134.553 163.509 134.567C163.413 134.581 163.324 134.623 163.253 134.689C161.071 136.667 159.305 139.057 158.06 141.72C156.736 141.409 155.567 140.635 154.767 139.539C157.034 133.82 160.45 132.524 160.588 126.332C160.594 126.245 160.574 126.157 160.531 126.081C160.487 126.005 160.422 125.943 160.343 125.904C160.264 125.865 160.176 125.849 160.088 125.861C160.001 125.872 159.919 125.909 159.852 125.966C157.8 127.593 155.861 129.356 154.047 131.243C153.074 130.342 152.414 129.156 152.163 127.857C155.9 125.204 158.765 122.779 159.178 118.021C159.178 117.914 159.178 117.609 158.995 117.502C158.811 117.396 158.78 117.502 156.605 119.027C155.282 119.836 154.111 120.868 153.143 122.077C152.136 121.034 151.586 119.636 151.611 118.189C155.563 114.925 159.086 114.712 159.852 109.039C159.864 108.97 159.857 108.9 159.832 108.835C159.806 108.771 159.764 108.714 159.709 108.672C159.654 108.63 159.588 108.603 159.519 108.595C159.45 108.587 159.38 108.598 159.316 108.627C156.892 109.709 154.658 111.171 152.699 112.958C152.06 112.108 151.601 111.138 151.351 110.106C159.286 106.4 160.695 101.337 165.918 99.5682C166.347 99.431 166.332 99.1107 166.071 98.943C165.305 98.4855 159.623 98.2262 154.552 101.52C153.869 100.412 153.523 99.1299 153.557 97.8297C162.502 94.4594 165.535 94.8712 170.667 95.6794C168.605 100.544 167.264 105.681 166.684 110.93C167.082 111.784 169.41 111.646 169.41 111.646C169.649 107.508 170.379 103.413 171.586 99.4462C171.273 103.123 171.15 106.813 171.218 110.503C172.134 110.535 173.051 110.448 173.944 110.243C173.761 104.357 173.761 94.0172 176.824 85.8583L193.674 89.6709C193.724 89.6803 193.776 89.6781 193.825 89.6645C193.875 89.6509 193.92 89.6262 193.959 89.5924C193.997 89.5586 194.027 89.5164 194.047 89.4693C194.066 89.4221 194.075 89.3711 194.072 89.3201C193.977 88.3837 194.175 87.4412 194.639 86.6208C194.93 86.1176 196.262 86.6208 159.653 78.6603C159.465 78.6255 159.271 78.6607 159.107 78.7591C158.943 78.8574 158.822 79.0122 158.765 79.194C158.06 81.512 159.27 81.8933 159.27 81.8933L174.358 85.3093C174.023 86.9004 173.557 88.4612 172.964 89.9759C170.85 88.2831 167.71 87.4291 167.174 87.9629C165.642 89.4879 165.504 91.7906 165.949 92.0956C167.075 92.8083 168.15 93.5982 169.165 94.4594C163.467 93.3004 158.627 94.4594 152.776 96.8385C152.676 96.8845 152.592 96.9575 152.532 97.0493C152.472 97.141 152.44 97.2477 152.439 97.357C152.415 99.1615 153.009 100.92 154.124 102.344C154.797 103.198 157.08 100.178 163.513 99.6292C159.822 101.505 157.386 105.867 151.259 109.115C150.646 109.45 150.371 109.603 150.386 109.908C150.408 110.707 150.6 111.492 150.948 112.212C151.297 112.932 151.794 113.571 152.408 114.086C153.128 114.391 152.408 113.873 158.765 109.832C157.233 114.498 154.369 114.117 150.6 117.457C150.11 117.884 150.248 120.918 152.73 123.236C152.83 123.334 152.965 123.389 153.105 123.389C153.245 123.389 153.38 123.334 153.48 123.236C154.838 121.674 156.381 120.282 158.075 119.088C156.406 124.96 150.784 126.576 150.999 127.583C151.034 128.561 151.313 129.514 151.81 130.358C152.307 131.202 153.008 131.91 153.848 132.417C154.767 132.768 154.338 131.929 159.653 127.385C159.01 132.981 154.828 134.583 153.71 139.432C153.496 140.027 155.119 142.33 158.305 143.077C159.577 143.351 158.642 141.171 162.9 136.382C162.589 139.43 162.666 142.504 163.13 145.532C163.36 146.813 166.761 147.057 168.445 146.874C169.456 146.737 168.445 146.234 168.752 140.515C171.938 146.447 170.498 146.356 173.883 144.373C173.761 145.898 173.623 147.423 173.439 148.948C166.515 148.536 164.524 149.147 164.463 148.857C164.402 148.567 164.31 148.064 163.896 148.048C121.007 146.752 91.9035 185.305 84.6736 227.258C78.4853 219.602 72.1132 221.127 69.6011 226.678C49.6882 224.025 34.8301 233.144 31.8126 249.965C29.7753 261.311 32.1189 269.791 39.4714 277.416C38.491 288.609 41.0031 289.067 45.5984 289.921C48.9119 290.516 52.3219 290.285 55.5242 289.25C55.8162 289.188 56.0783 289.028 56.2676 288.798C56.4568 288.568 56.562 288.281 56.5658 287.984C57.9903 287.984 60.9007 287.893 61.9116 286.688C62.2232 286.131 62.3518 285.491 62.2793 284.858C67.2268 285.498 65.2356 284.065 66.3997 288.289C66.9511 290.317 67.4107 290.821 69.1262 291.339C73.0628 292.422 85.9756 292.773 86.9406 288.487C88.9165 288.64 94.339 288.823 95.4572 286.398C95.817 284.875 95.9511 283.308 95.8554 281.747C104.617 279.627 111.081 274.564 114.558 267.076C132.388 266.146 145.714 262.242 155.288 255.15C159.209 261.982 163.529 261.418 161.415 256.111C164.861 259.832 167.756 257.636 164.907 252.421C165.68 253.188 166.688 253.676 167.771 253.808L172.903 264.331H170.467C170.038 264.331 169.993 264.605 169.962 264.895C169.951 265.053 169.951 265.211 169.962 265.368C169.927 265.36 169.89 265.36 169.855 265.368H165.259C164.095 265.49 163.237 267.747 162.196 270.355C160.45 274.93 160.434 276.257 160.404 277.766C160.31 278.912 160.469 280.065 160.872 281.143C161.274 282.22 161.909 283.197 162.732 284.004C163.758 285.025 203.967 285.635 204.779 284.614C205.806 283.497 206.495 282.115 206.766 280.625C207.037 279.135 206.879 277.6 206.311 276.196C206.311 276.104 202.451 267.046 201.715 266.405C200.609 265.881 199.383 265.655 198.162 265.749H197.917V265.215C197.898 265.046 197.818 264.888 197.691 264.773C197.564 264.658 197.399 264.593 197.227 264.59C195.695 264.59 194.608 264.514 193.352 264.59C192.739 264.59 192.831 265.337 192.8 265.703H191.008C191.008 265.444 191.008 264.743 190.273 264.727H185.678C185.111 264.727 185.188 265.414 185.157 265.566H183.625C183.625 265.475 183.625 264.575 182.89 264.56C182.155 264.544 180.837 264.56 180.072 264.56C180.08 264.428 180.08 264.295 180.072 264.163C179.949 263.126 173.531 250.591 172.979 249.554H236.992C250.961 251.429 260.106 252.268 276.036 253.092C277.905 256.492 281.903 256.309 282.454 254.022C285.181 254.861 287.05 254.129 287.05 251.338C287.671 251.439 288.31 251.347 288.877 251.074C289.444 250.801 289.913 250.361 290.22 249.813C318.834 249.813 318.251 250.072 318.236 249.294C318.221 248.517 318.925 248.715 290.419 248.715ZM211.197 109.008C212.49 105.564 213.514 102.026 214.26 98.4245C216.926 97.2655 221.046 97.4485 224.079 97.9975C224.567 98.6613 224.83 99.4625 224.829 100.285C222.721 100.281 220.646 100.805 218.794 101.81C218.749 101.833 218.709 101.865 218.677 101.904C218.646 101.944 218.623 101.99 218.611 102.039C218.473 102.542 219.131 102.573 219.652 102.634C227.725 103.625 227.311 109.283 231.6 111.296C231.304 112.358 230.752 113.331 229.992 114.132C225.764 111.494 225.779 107.864 221.123 107.392C221.069 107.388 221.016 107.397 220.967 107.418C220.918 107.438 220.874 107.469 220.839 107.509C220.803 107.548 220.777 107.595 220.763 107.646C220.748 107.697 220.746 107.751 220.755 107.803C221.291 114.59 229.639 112.775 230.543 121.528C229.656 122.1 228.628 122.417 227.571 122.443C227.3 120.82 226.556 119.311 225.432 118.105C224.307 116.898 222.851 116.047 221.245 115.657C221.186 115.637 221.123 115.632 221.061 115.642C220.999 115.652 220.941 115.677 220.891 115.714C220.841 115.752 220.801 115.801 220.775 115.858C220.748 115.914 220.736 115.976 220.74 116.038C220.868 117.427 221.294 118.771 221.989 119.981C222.684 121.191 223.632 122.239 224.768 123.053C227.541 125.539 228.95 127.491 228.797 133.241C228.283 133.506 227.719 133.661 227.141 133.696C226.563 133.73 225.984 133.642 225.442 133.439C226.086 127.339 221.858 122.87 221.475 124.289C219.867 130.221 223.543 132.112 224.814 137.678C223.975 138.489 222.905 139.022 221.751 139.203C221.085 136.056 219.833 133.061 218.059 130.374C218.03 130.305 217.981 130.246 217.918 130.205C217.855 130.164 217.782 130.142 217.707 130.142C217.632 130.142 217.558 130.164 217.496 130.205C217.433 130.246 217.384 130.305 217.355 130.374C215.547 136.687 218.166 137.678 220.219 143.473C219.463 144.129 218.624 144.683 217.722 145.12C216.466 141.567 212.836 137.785 213.311 139.859C213.844 142.374 214.213 144.921 214.414 147.484C213.527 147.909 212.574 148.177 211.595 148.277C211.775 146.107 211.173 143.944 209.895 142.177C209.862 142.121 209.815 142.075 209.759 142.042C209.702 142.01 209.638 141.994 209.573 141.994C208.761 141.994 209.726 143.367 207.658 147.53C206.714 147.74 205.741 147.791 204.779 147.682C208.204 142.396 210.643 136.538 211.978 130.389C214.153 119.637 211.534 115.001 205.851 110.564C207.98 110.594 210.523 110.259 211.197 109.008ZM226.591 123.282C224.814 121.498 222.762 120.232 221.705 116.694C223.013 117.291 224.147 118.208 225.001 119.361C225.856 120.513 226.403 121.862 226.591 123.282ZM224.401 133.515C222.976 130.618 221.582 129.093 222.103 125.295C223.838 127.671 224.653 130.589 224.401 133.515ZM166.592 91.5009C166.792 90.584 167.207 89.7271 167.802 88.9999C169.518 89.326 171.146 90.0066 172.581 90.9976C172.091 92.2634 171.555 93.5902 171.049 94.9779C170.025 93.3293 168.445 92.097 166.592 91.5009ZM85.1637 282.814C84.7961 284.415 85.4701 286.398 85.4394 287.862C85.3475 291.156 72.8331 290.988 69.4019 290.104C68.682 289.906 68.008 289.738 67.5332 288.014C67.2881 287.13 67.1656 286.489 67.0583 285.879C66.3691 282.128 66.4456 286.154 52.2003 281.548C51.6041 281.31 50.9821 281.141 50.3469 281.045C50.2604 281.04 50.1748 281.065 50.1051 281.116C50.0354 281.167 49.9862 281.241 49.966 281.325C49.9459 281.409 49.9561 281.497 49.995 281.575C50.0338 281.652 50.0988 281.713 50.1784 281.747C51.843 282.546 53.589 283.164 55.3863 283.592C55.2025 287.999 55.5855 288.076 55.0953 288.167C52.0693 289.093 48.8622 289.271 45.7516 288.686C41.2482 287.831 39.7011 287.374 40.6508 277.248C40.804 275.631 30.097 269.242 33.3903 250.194C36.1628 234.288 49.8414 225.702 69.1109 227.776C67.7334 232.553 68.0195 237.654 69.9227 242.249C69.9532 242.346 70.0212 242.427 70.1116 242.474C70.2021 242.521 70.3077 242.531 70.4052 242.5C70.5027 242.47 70.5841 242.402 70.6315 242.312C70.6789 242.222 70.6884 242.117 70.658 242.02C65.9402 225.87 75.7281 215.561 86.2513 231.635C86.3249 231.743 86.4324 231.824 86.557 231.865C86.6816 231.907 86.8164 231.906 86.9406 231.863C100.987 227.288 103.177 239.763 108.906 243.271C104.648 245.146 102.917 252.939 102.61 256.996C102.105 263.37 104.265 273.878 109.886 272.063C99.3019 283.79 85.9602 279.459 85.1637 282.814ZM103.024 225.382C101.001 226.84 99.4901 228.894 98.7045 231.253C96.5052 229.999 93.9649 229.465 91.4439 229.728C101.354 219.45 109.519 222.027 103.897 235.95C102.762 234.497 101.438 233.2 99.9605 232.092C100.48 229.748 101.71 227.618 103.484 225.992C103.565 225.931 103.619 225.841 103.633 225.741C103.647 225.641 103.621 225.539 103.56 225.458C103.499 225.377 103.409 225.324 103.308 225.31C103.207 225.295 103.105 225.321 103.024 225.382ZM113.746 265.856C113.083 267.694 111.876 269.289 110.285 270.431C105.337 273.222 103.56 262.638 104.004 257.011C104.341 252.771 106.425 244.064 110.637 244.064C115.431 244.109 117.407 257.255 113.777 265.856H113.746ZM162.196 248.273C162.162 248.23 162.119 248.194 162.071 248.167C162.023 248.14 161.97 248.123 161.915 248.117C161.861 248.11 161.805 248.115 161.752 248.13C161.699 248.145 161.649 248.17 161.606 248.204C161.563 248.238 161.527 248.28 161.5 248.328C161.473 248.376 161.456 248.429 161.45 248.483C161.443 248.538 161.448 248.593 161.463 248.646C161.478 248.699 161.503 248.748 161.537 248.791C162.833 250.467 163.866 252.328 164.601 254.312C164.938 255.349 165.076 256.569 164.739 256.797C164.402 257.026 163.345 256.431 162.502 255.73C160.342 253.93 159.439 252.131 158.979 252.436C158.749 252.558 158.841 252.848 158.979 253.092C159.592 254.22 161.798 258.887 160.603 259.024C159.408 259.161 157.034 255.821 156.268 254.586C155.946 254.052 155.625 253.458 155.089 253.854C143.248 262.348 127.517 264.651 115.125 265.658C117.729 258.917 117.377 249.386 114.328 245.055C113.941 244.396 113.389 243.847 112.726 243.462C112.063 243.078 111.312 242.87 110.545 242.859C108.355 242.096 106.287 238.955 104.602 236.759C107.665 229.408 107.665 224.559 104.403 222.82H104.311C99.3938 220.655 93.4506 225.306 89.8203 229.972C88.9038 230.154 87.9985 230.388 87.1091 230.674C86.6802 229.972 86.2206 229.286 85.7764 228.646C87.203 221.969 89.0342 215.384 91.2601 208.927C99.4397 208.317 130.81 217.269 139.541 222.744C139.569 222.762 139.6 222.775 139.633 222.78C139.665 222.786 139.699 222.784 139.731 222.775C139.763 222.767 139.793 222.751 139.818 222.73C139.843 222.709 139.864 222.682 139.878 222.652C147.537 206.35 147.123 193.951 140.904 178.427C139.893 175.88 142.084 176.261 142.819 177.725C154.231 200.753 144.09 227.288 137.029 238.299C129.37 232.428 124.07 228.234 114.558 227.136C114.436 227.117 114.31 227.146 114.209 227.218C114.108 227.289 114.039 227.397 114.017 227.519C113.995 227.641 114.022 227.766 114.092 227.868C114.161 227.97 114.268 228.041 114.39 228.066C130.197 231.619 135.834 241.623 149.421 248.273C149.555 248.338 149.708 248.352 149.852 248.313C149.996 248.273 150.12 248.183 150.202 248.059C153.725 242.584 158.642 239.748 163.789 240.19C163.327 240.456 162.909 240.79 162.548 241.181C161.721 242.066 162.181 242.615 162.855 243.804C162.784 243.876 162.745 243.971 162.745 244.071C162.745 244.171 162.784 244.267 162.855 244.338C169.073 248.989 171.203 258.109 162.196 248.273ZM203.921 283.653C201.011 283.653 169.487 283.47 163.544 283.012C162.853 282.179 162.336 281.218 162.023 280.183C161.71 279.149 161.608 278.063 161.721 276.989C176.21 278.211 190.769 278.395 205.284 277.538C205.52 278.594 205.521 279.689 205.285 280.746C205.049 281.803 204.584 282.795 203.921 283.653ZM179.888 268.754V268.662C181.066 268.724 182.247 268.724 183.426 268.662C184.269 268.571 183.87 267.473 183.794 266.634H185.126C185.126 267.518 184.667 268.708 185.586 268.815C187.307 268.998 189.042 268.998 190.763 268.815C191.667 268.723 191.161 267.503 191.131 266.649H192.77C192.77 267.366 192.31 268.571 193.245 268.693C194.73 268.868 196.232 268.868 197.717 268.693C198.162 268.693 198.253 268.311 198.238 267.93C198.238 267.93 198.238 267.396 198.146 266.878C199.127 266.827 200.11 266.935 201.057 267.198C201.302 267.549 204.381 274.732 205.07 276.653C194.684 276.653 170.176 276.272 161.828 276.104C162.196 274.305 164.693 266.725 165.397 266.436H169.763C169.793 266.444 169.825 266.444 169.855 266.436C169.855 266.969 169.855 267.457 169.763 267.533C169.763 268.037 169.763 268.449 170.36 268.51C172.635 268.657 174.917 268.657 177.192 268.51C178.004 268.891 178.356 269.028 178.478 269.074C179.137 269.425 179.612 269.287 179.888 268.754ZM178.831 263.584C179.095 265.097 179.095 266.645 178.831 268.159C177.942 267.808 175.292 266.39 175.124 266.314C174.955 266.237 174.404 265.017 168.721 253.503C168.898 253.342 169.039 253.147 169.137 252.929C169.234 252.711 169.286 252.476 169.288 252.238C169.395 250.423 167.664 247.129 164.157 244.292C163.084 242.05 162.119 241.837 165.076 240.663C166.868 239.946 166.852 240.434 167.205 241.074C170.222 246.427 174.297 253.793 178.8 263.584H178.831ZM170.896 245.528L168.645 241.41C172.796 242.523 175.277 244.094 175.583 245.116C175.89 246.138 172.229 245.634 170.896 245.528ZM275.715 251.948C243.762 249.63 212.729 245.024 202.068 243.057C218.243 229.134 241.403 211.123 252.616 199.701C276.572 205.176 300.958 208.271 321.346 208.409C319.278 213.716 299.365 234.852 291.43 242.92C289.163 241.791 284.522 243.133 285.012 245.543C282.531 245.451 281.688 246.305 281.397 246.839C281.258 247.094 281.185 247.38 281.185 247.67C281.185 247.961 281.258 248.246 281.397 248.501C279.958 248.501 278.61 248.959 278.579 250.362C276.649 249.706 275.607 250.652 275.715 251.872V251.948ZM276.94 252.405C276.266 251.094 277.445 250.972 278.87 251.551C279.512 252.523 280.452 253.261 281.551 253.656C281.168 255.349 277.92 254.342 276.94 252.329V252.405ZM285.472 252.802C284.185 253.839 279.345 251.856 279.697 250.331C279.774 249.859 280.509 249.432 282.301 249.615C283.398 250.398 284.661 250.92 285.993 251.14C286.024 251.426 285.993 251.715 285.904 251.988C285.814 252.262 285.667 252.513 285.472 252.726V252.802ZM289.271 249.172C289.026 249.965 288.244 250.24 286.82 250.026C282.225 249.325 280.31 246.443 285.748 246.763C286.649 247.366 287.729 247.646 288.811 247.556C289.024 247.745 289.18 247.989 289.261 248.261C289.342 248.533 289.346 248.822 289.271 249.096V249.172ZM286.422 245.817C284.89 244.292 290.358 243.011 291.247 244.292C291.343 244.473 291.394 244.675 291.394 244.879C291.394 245.084 291.343 245.286 291.247 245.467C290.619 246.702 287.279 246.61 286.422 245.741V245.817Z" fill="#2973B2"/>
</svg>
